<svg xmlns="http://www.w3.org/2000/svg" xmlns:xlink="http://www.w3.org/1999/xlink" width="1080" zoomAndPan="magnify" viewBox="0 0 810 809.999993" height="1080" preserveAspectRatio="xMidYMid meet" version="1.0"><defs><clipPath id="22abc5ec8e"><path d="M 336 290 L 728 290 L 728 809.757812 L 336 809.757812 Z M 336 290 " clip-rule="nonzero"/></clipPath></defs><path fill="#41197f" d="M 312.566406 186.09375 C 266.0625 221.785156 233.722656 269.121094 213.699219 330.800781 C 211.316406 338.144531 215.335938 346.03125 222.679688 348.417969 C 224.113281 348.882812 225.570312 349.105469 227 349.105469 C 232.894531 349.105469 238.375 345.347656 240.292969 339.4375 C 258.507812 283.316406 287.71875 240.414062 329.589844 208.28125 C 335.710938 203.582031 336.867188 194.800781 332.167969 188.671875 C 327.472656 182.546875 318.699219 181.390625 312.566406 186.09375 Z M 312.566406 186.09375 " fill-opacity="1" fill-rule="nonzero"/><path fill="#41197f" d="M 796.011719 385.742188 L 694.4375 385.742188 C 689.652344 243.378906 581.714844 126.730469 443.183594 108.402344 C 452.53125 93.273438 458.847656 72.246094 460.632812 47.59375 C 461.558594 34.816406 455.386719 22.613281 444.527344 15.742188 C 420.515625 0.5625 389.484375 0.5625 365.46875 15.742188 C 354.613281 22.613281 348.441406 34.816406 349.363281 47.597656 C 351.148438 72.25 357.46875 93.273438 366.816406 108.398438 C 228.285156 126.734375 120.347656 243.378906 115.558594 385.742188 L 13.988281 385.742188 C 6.265625 385.742188 0.0078125 392 0.0078125 399.726562 C 0.0078125 407.449219 6.265625 413.710938 13.988281 413.710938 L 39.9375 413.710938 L 55.8125 446.207031 C 60.863281 456.542969 71.554688 463.222656 83.054688 463.222656 L 347.121094 463.222656 C 354.839844 463.222656 361.097656 456.964844 361.097656 449.238281 C 361.097656 441.515625 354.839844 435.253906 347.121094 435.253906 L 83.054688 435.253906 C 82.160156 435.253906 81.324219 434.734375 80.933594 433.925781 L 71.054688 413.707031 L 328.519531 413.707031 C 336.242188 413.707031 342.5 407.449219 342.5 399.722656 C 342.5 392 336.242188 385.742188 328.519531 385.742188 L 143.539062 385.742188 C 148.742188 245.964844 264.019531 133.847656 405 133.847656 C 546.410156 133.847656 661.964844 246.644531 666.511719 387.015625 C 661.675781 389.214844 658.296875 394.0625 658.296875 399.726562 C 658.296875 407.449219 664.554688 413.710938 672.277344 413.710938 L 738.945312 413.710938 L 729.070312 433.929688 C 728.675781 434.734375 727.839844 435.253906 726.945312 435.253906 L 691.832031 435.253906 C 684.109375 435.253906 677.851562 441.515625 677.851562 449.238281 C 677.851562 456.964844 684.109375 463.222656 691.832031 463.222656 L 726.945312 463.222656 C 738.445312 463.222656 749.140625 456.542969 754.1875 446.207031 L 770.0625 413.710938 L 796.011719 413.710938 C 803.734375 413.710938 809.992188 407.449219 809.992188 399.726562 C 809.992188 392 803.734375 385.742188 796.011719 385.742188 Z M 377.253906 45.578125 C 377.070312 43.105469 378.285156 40.730469 380.410156 39.386719 C 387.878906 34.664062 396.441406 32.304688 405 32.304688 C 413.558594 32.304688 422.121094 34.664062 429.589844 39.386719 C 431.714844 40.730469 432.929688 43.105469 432.75 45.578125 C 429.9375 84.40625 414.558594 105.878906 405 105.878906 C 395.441406 105.878906 380.0625 84.40625 377.253906 45.578125 Z M 377.253906 45.578125 " fill-opacity="1" fill-rule="nonzero"/><g clip-path="url(#22abc5ec8e)"><path fill="#41197f" d="M 691.628906 633.746094 C 687.671875 623.605469 676.472656 618.425781 666.253906 621.730469 L 661.644531 609.925781 L 661.644531 609.921875 C 661.316406 609.089844 660.925781 608.308594 660.507812 607.542969 C 666.539062 600.640625 671.558594 592.789062 675.339844 584.148438 C 685.0625 561.949219 685.558594 537.289062 676.742188 514.710938 L 629.449219 393.644531 C 625.792969 384.28125 618.707031 376.902344 609.503906 372.871094 C 600.300781 368.839844 590.074219 368.628906 580.710938 372.289062 L 578.984375 372.964844 C 572.957031 375.320312 567.753906 379.097656 563.734375 383.949219 C 553.652344 376.320312 539.953125 373.933594 527.34375 378.847656 L 525.738281 379.472656 C 519.753906 381.804688 514.578125 385.535156 510.566406 390.328125 C 500.488281 382.730469 486.824219 380.371094 474.238281 385.269531 C 470.21875 386.835938 466.5625 389.03125 463.382812 391.757812 L 433.347656 314.871094 C 429.691406 305.507812 422.605469 298.132812 413.402344 294.097656 C 404.191406 290.066406 393.964844 289.863281 384.613281 293.515625 L 383.351562 294.011719 C 364.03125 301.558594 354.453125 323.429688 362 342.761719 L 416.796875 483.042969 C 393.378906 474.78125 366.363281 479.296875 346.882812 496.503906 C 337.648438 504.671875 334.453125 517.871094 338.941406 529.367188 C 341.476562 535.84375 346.238281 541.234375 352.34375 544.546875 C 375.800781 557.285156 395.234375 576.25 408.523438 599.375 L 408.980469 600.179688 C 427.410156 632.257812 454.960938 657.269531 488.660156 672.519531 L 488.753906 672.5625 C 488.972656 674.066406 489.347656 675.570312 489.925781 677.046875 L 495.222656 690.605469 C 489.910156 696.195312 487.960938 704.550781 490.949219 712.191406 L 525.558594 800.789062 C 527.714844 806.3125 532.992188 809.6875 538.582031 809.6875 C 540.273438 809.6875 541.996094 809.378906 543.664062 808.726562 C 550.855469 805.914062 554.40625 797.804688 551.597656 790.609375 L 519.707031 708.976562 L 661.921875 653.386719 L 668.308594 650.886719 L 700.199219 732.523438 C 703.007812 739.722656 711.117188 743.265625 718.304688 740.460938 C 725.496094 737.652344 729.050781 729.539062 726.238281 722.347656 Z M 520.554688 678.617188 L 518.71875 673.910156 L 591.792969 645.34375 L 625.265625 632.261719 C 625.265625 632.257812 625.269531 632.257812 625.269531 632.257812 L 638.351562 627.144531 L 640.191406 631.851562 Z M 433.234375 586.265625 L 432.773438 585.460938 C 416.890625 557.820312 393.6875 535.171875 365.675781 519.964844 C 365.359375 519.792969 365.109375 519.511719 364.980469 519.179688 C 364.746094 518.578125 364.910156 517.890625 365.390625 517.464844 C 373.3125 510.46875 383.304688 506.960938 393.300781 506.960938 C 403.089844 506.960938 412.878906 510.324219 420.734375 517.0625 L 434.804688 529.136719 L 440.089844 542.667969 C 442.898438 549.863281 451.007812 553.410156 458.195312 550.605469 C 465.386719 547.792969 468.941406 539.679688 466.132812 532.488281 L 459.683594 515.976562 C 459.609375 515.789062 459.539062 515.597656 459.460938 515.410156 L 388.042969 332.582031 C 386.101562 327.617188 388.5625 322 393.527344 320.0625 L 394.792969 319.566406 C 397.195312 318.625 399.816406 318.679688 402.183594 319.714844 C 404.546875 320.75 406.367188 322.648438 407.308594 325.050781 L 461.316406 463.320312 C 464.402344 471.207031 473.328125 475.117188 481.191406 472.046875 C 485.023438 470.554688 488.042969 467.660156 489.695312 463.894531 C 491.347656 460.128906 491.429688 455.945312 489.933594 452.132812 L 478.890625 423.859375 C 477.949219 421.449219 478.003906 418.820312 479.039062 416.453125 C 480.082031 414.089844 481.976562 412.265625 484.382812 411.328125 C 489.339844 409.394531 494.953125 411.863281 496.886719 416.820312 L 509.09375 448.0625 C 510.582031 451.878906 513.597656 454.992188 517.367188 456.605469 C 521.136719 458.21875 525.472656 458.242188 529.324219 456.65625 C 536.980469 453.472656 540.753906 444.597656 537.738281 436.871094 L 530.390625 418.058594 C 529.449219 415.652344 529.5 413.023438 530.539062 410.65625 C 531.578125 408.292969 533.472656 406.472656 535.882812 405.535156 L 537.488281 404.910156 C 542.449219 402.976562 548.058594 405.4375 549.992188 410.398438 L 557.339844 429.207031 C 558.832031 433.023438 561.84375 436.136719 565.613281 437.75 C 569.386719 439.359375 573.714844 439.386719 577.761719 437.722656 C 585.410156 434.539062 589.191406 425.675781 586.179688 417.933594 L 583.679688 411.53125 C 582.742188 409.128906 582.792969 406.5 583.828125 404.136719 C 584.863281 401.773438 586.757812 399.953125 589.164062 399.011719 L 590.894531 398.335938 C 593.296875 397.394531 595.917969 397.449219 598.285156 398.484375 C 600.648438 399.523438 602.46875 401.417969 603.410156 403.820312 L 650.699219 524.890625 C 656.804688 540.507812 656.457031 557.570312 649.730469 572.925781 C 643.007812 588.285156 630.710938 600.101562 615.105469 606.203125 L 591.308594 615.503906 L 505.03125 649.230469 L 500.179688 647.035156 C 471.863281 634.222656 448.710938 613.199219 433.234375 586.265625 Z M 433.234375 586.265625 " fill-opacity="1" fill-rule="nonzero"/></g></svg>