<svg xmlns="http://www.w3.org/2000/svg" xmlns:xlink="http://www.w3.org/1999/xlink" width="1080" zoomAndPan="magnify" viewBox="0 0 810 809.999993" height="1080" preserveAspectRatio="xMidYMid meet" version="1.0"><defs><clipPath id="c0f5348704"><path d="M 128.082031 24 L 402 24 L 402 348 L 128.082031 348 Z M 128.082031 24 " clip-rule="nonzero"/></clipPath></defs><path fill="#ffd700" d="M 235.671875 36.960938 L 348.09375 218.894531 C 353.175781 227.121094 350.628906 237.902344 342.421875 242.976562 C 334.207031 248.066406 323.429688 245.515625 318.355469 237.304688 L 196.476562 61.210938 L 186.667969 67.265625 L 288.617188 255.703125 C 293.691406 263.914062 291.15625 274.695312 282.9375 279.78125 C 274.71875 284.859375 263.953125 282.308594 258.871094 274.097656 L 146.445312 92.160156 L 132.910156 100.53125 L 255.90625 319.191406 C 270.300781 342.484375 300.839844 349.691406 324.117188 335.289062 L 373.648438 304.640625 C 396.925781 290.238281 404.128906 259.683594 389.734375 236.390625 L 248.058594 29.289062 L 235.671875 36.960938 " fill-opacity="1" fill-rule="nonzero"/><path fill="#ffd700" d="M 639.695312 706.898438 C 636.628906 702.570312 632.132812 696.230469 626.40625 688.152344 C 620.757812 680.03125 613.90625 670.164062 606.046875 658.851562 C 598.246094 647.503906 589.488281 634.667969 580.007812 620.613281 C 570.550781 606.558594 560.3125 591.320312 549.636719 575.113281 C 538.894531 558.949219 527.734375 541.804688 516.167969 524.0625 C 504.683594 506.296875 492.800781 487.921875 480.886719 469.175781 C 468.878906 450.472656 456.929688 431.320312 444.859375 412.25 C 441.917969 407.5 438.960938 402.761719 436.007812 398.023438 C 427.035156 383.632812 418.050781 369.285156 409.316406 355.039062 C 402.042969 343.21875 394.851562 331.542969 387.820312 320.015625 C 383.578125 313.078125 379.386719 306.1875 375.304688 299.363281 C 369.929688 290.488281 364.800781 281.667969 359.703125 273.070312 L 306.417969 306.03125 C 311.660156 314.34375 317.082031 322.78125 322.4375 331.453125 C 333.609375 349.367188 344.878906 368.03125 356.390625 386.960938 L 356.46875 387.105469 C 368.046875 406.078125 379.554688 425.488281 391.199219 444.824219 C 395.652344 452.378906 400.128906 459.925781 404.59375 467.449219 C 411.613281 479.292969 418.605469 491.089844 425.433594 502.820312 C 436.695312 521.984375 447.621094 540.921875 458.207031 559.253906 C 468.710938 577.625 478.878906 595.378906 488.371094 612.300781 C 497.929688 629.183594 506.824219 645.234375 515.019531 660.066406 C 523.203125 674.902344 530.621094 688.539062 537.183594 700.652344 C 543.664062 712.8125 549.3125 723.402344 553.96875 732.121094 C 558.542969 740.894531 562.140625 747.789062 564.585938 752.492188 C 567 757.207031 568.292969 759.734375 568.292969 759.734375 C 570.066406 763.160156 572.261719 766.828125 574.609375 770.074219 C 593.851562 796.730469 625.085938 805.675781 644.375 790.050781 C 663.664062 774.429688 663.695312 740.152344 644.453125 713.5 C 644.453125 713.5 642.796875 711.199219 639.695312 706.898438 " fill-opacity="1" fill-rule="nonzero"/><path fill="#ffd700" d="M 307.769531 753.84375 C 309.8125 748.949219 312.808594 741.777344 316.632812 732.652344 C 320.53125 723.558594 325.265625 712.515625 330.699219 699.851562 C 336.199219 687.230469 342.445312 672.996094 349.34375 657.519531 C 356.253906 642.042969 363.761719 625.292969 371.855469 607.640625 C 379.882812 589.976562 388.507812 571.421875 397.421875 552.214844 C 406.417969 533.0625 415.707031 513.242188 425.300781 493.199219 C 434.804688 473.125 444.710938 452.84375 454.507812 432.507812 C 456.964844 427.488281 459.421875 422.480469 461.878906 417.460938 C 469.332031 402.222656 476.738281 387.003906 484.199219 372.035156 C 490.378906 359.617188 496.464844 347.335938 502.519531 335.253906 C 506.160156 327.992188 509.789062 320.773438 513.398438 313.699219 C 518.085938 304.441406 522.855469 295.425781 527.453125 286.539062 L 471.292969 258.757812 C 467.019531 267.601562 462.75 276.667969 458.214844 285.804688 C 448.9375 304.765625 439.085938 324.222656 429.109375 344.007812 L 429.042969 344.15625 C 419.078125 364.015625 408.71875 384.0625 398.472656 404.171875 C 394.425781 411.964844 390.398438 419.75 386.375 427.53125 C 380.0625 439.757812 373.75 451.929688 367.414062 463.941406 C 357.121094 483.648438 346.84375 502.945312 336.898438 521.625 C 326.890625 540.269531 317.21875 558.304688 307.894531 575.316406 C 298.628906 592.367188 289.722656 608.410156 281.492188 623.21875 C 273.253906 638.015625 265.609375 651.539062 258.800781 663.507812 C 251.925781 675.453125 245.941406 685.851562 241.003906 694.425781 C 235.984375 702.953125 232.039062 709.652344 229.359375 714.21875 C 226.628906 718.765625 225.164062 721.191406 225.164062 721.191406 C 223.203125 724.507812 221.265625 728.320312 219.742188 732.03125 C 207.332031 762.472656 216.269531 793.730469 239.730469 801.839844 C 263.1875 809.9375 292.269531 791.824219 304.691406 761.390625 C 304.691406 761.390625 305.765625 758.761719 307.769531 753.84375 " fill-opacity="1" fill-rule="nonzero"/><path fill="#ffd700" d="M 625.042969 205.484375 C 588.304688 279.804688 524.242188 323.105469 481.957031 302.171875 C 439.671875 281.25 435.175781 204.03125 471.914062 129.699219 C 508.652344 55.367188 548.386719 0.0429688 614.996094 33.011719 C 681.609375 65.96875 661.78125 131.152344 625.042969 205.484375 " fill-opacity="1" fill-rule="nonzero"/><path fill="#ffd700" d="M 644.453125 713.5 L 647.96875 710.960938 C 647.96875 710.960938 646.3125 708.660156 643.203125 704.363281 L 643.226562 704.394531 C 640.160156 700.066406 635.660156 693.726562 629.933594 685.648438 L 629.957031 685.683594 C 624.308594 677.5625 617.457031 667.691406 609.597656 656.378906 L 609.609375 656.402344 C 601.820312 645.054688 593.0625 632.230469 583.601562 618.1875 C 574.144531 604.144531 563.921875 588.917969 553.246094 572.730469 L 553.246094 572.710938 C 542.515625 556.566406 531.367188 539.433594 519.800781 521.703125 L 519.800781 521.714844 C 508.3125 503.9375 496.441406 485.585938 484.539062 466.851562 L 484.527344 466.828125 C 476.195312 453.859375 467.886719 440.648438 459.535156 427.394531 C 458.703125 426.066406 457.214844 425.296875 455.644531 425.378906 C 454.078125 425.457031 452.683594 426.382812 451.984375 427.792969 C 451.53125 428.726562 451.070312 429.664062 450.617188 430.589844 L 450.609375 430.621094 C 440.824219 450.949219 430.902344 471.238281 421.386719 491.351562 L 421.398438 491.339844 C 420.566406 493.078125 419.742188 494.800781 418.917969 496.515625 C 418.300781 497.8125 418.367188 499.335938 419.089844 500.566406 C 419.96875 502.066406 420.847656 503.554688 421.691406 505.011719 L 421.703125 505.019531 C 432.953125 524.164062 443.867188 543.089844 454.453125 561.417969 L 454.441406 561.40625 C 464.945312 579.78125 475.125 597.523438 484.605469 614.421875 L 484.605469 614.429688 C 494.144531 631.304688 503.035156 647.332031 511.230469 662.167969 C 519.40625 676.976562 526.824219 690.613281 533.371094 702.714844 L 533.359375 702.691406 C 539.84375 714.839844 545.488281 725.445312 550.144531 734.164062 L 550.132812 734.128906 C 554.710938 742.902344 558.296875 749.796875 560.753906 754.5 L 560.730469 754.464844 C 563.144531 759.179688 564.429688 761.695312 564.441406 761.707031 L 564.441406 761.730469 C 566.3125 765.339844 568.609375 769.152344 571.101562 772.613281 C 584.628906 791.304688 603.835938 802.03125 621.988281 802.066406 C 631.050781 802.085938 639.867188 799.289062 647.101562 793.414062 C 652.535156 789.015625 656.582031 783.308594 659.242188 776.878906 C 661.902344 770.449219 663.1875 763.296875 663.1875 755.851562 C 663.1875 741.019531 658.082031 724.992188 647.96875 710.960938 L 644.453125 713.5 L 640.949219 716.035156 C 650.042969 728.625 654.542969 743.015625 654.53125 755.851562 C 654.542969 762.292969 653.414062 768.328125 651.238281 773.5625 C 649.0625 778.816406 645.875 783.261719 641.648438 786.691406 C 636.019531 791.226562 629.324219 793.390625 621.988281 793.402344 C 607.34375 793.457031 590.242188 784.378906 578.113281 767.539062 C 575.925781 764.492188 573.808594 760.996094 572.140625 757.746094 L 572.148438 757.769531 C 572.148438 757.769531 570.855469 755.242188 568.441406 750.519531 L 568.429688 750.484375 C 565.972656 745.78125 562.386719 738.886719 557.8125 730.113281 L 557.789062 730.078125 C 553.132812 721.359375 547.484375 710.769531 540.992188 698.621094 L 540.980469 698.597656 C 534.429688 686.472656 527.003906 672.824219 518.808594 657.96875 C 510.613281 643.136719 501.707031 627.074219 492.136719 610.167969 L 492.148438 610.179688 C 482.644531 593.238281 472.464844 575.472656 461.960938 557.097656 L 461.949219 557.085938 C 451.363281 538.757812 440.441406 519.808594 429.167969 500.632812 L 429.179688 500.644531 C 428.296875 499.15625 427.417969 497.667969 426.5625 496.199219 L 422.832031 498.390625 L 426.730469 500.25 C 427.566406 498.511719 428.378906 496.796875 429.199219 495.074219 L 429.210938 495.0625 C 438.691406 475.007812 448.601562 454.726562 458.410156 434.378906 L 458.386719 434.414062 C 458.847656 433.476562 459.300781 432.539062 459.761719 431.613281 L 455.871094 429.699219 L 452.207031 432.007812 C 460.5625 445.261719 468.878906 458.492188 477.246094 471.511719 L 477.234375 471.5 C 489.160156 490.269531 501.042969 508.640625 512.539062 526.417969 L 512.539062 526.429688 C 524.105469 544.160156 535.277344 561.316406 546.03125 577.515625 L 546.019531 577.492188 C 556.71875 593.722656 566.964844 608.972656 576.421875 623.027344 C 585.902344 637.101562 594.671875 649.949219 602.472656 661.308594 L 602.484375 661.332031 C 610.351562 672.632812 617.207031 682.503906 622.84375 690.636719 L 622.878906 690.65625 C 628.59375 698.734375 633.101562 705.085938 636.167969 709.402344 L 636.179688 709.425781 C 639.289062 713.734375 640.949219 716.023438 640.949219 716.035156 L 644.453125 713.5 " fill-opacity="1" fill-rule="nonzero"/><path fill="#ffd700" d="M 398.472656 404.171875 L 402.328125 406.144531 C 408.550781 393.941406 414.78125 381.769531 420.972656 369.625 C 421.660156 368.269531 421.589844 366.667969 420.792969 365.371094 C 418.1875 361.164062 415.570312 356.945312 413 352.773438 L 413 352.761719 C 405.730469 340.941406 398.539062 329.277344 391.515625 317.761719 C 387.875 311.816406 384.289062 305.917969 380.773438 300.050781 C 380.140625 299.003906 379.105469 298.28125 377.898438 298.042969 C 376.703125 297.808594 375.464844 298.078125 374.484375 298.8125 C 373.410156 299.601562 372.398438 300.332031 371.371094 300.964844 L 322.347656 331.296875 C 321.355469 331.90625 320.667969 332.863281 320.40625 333.992188 C 320.136719 335.121094 320.328125 336.28125 320.949219 337.261719 C 331.375 354.070312 341.925781 371.507812 352.691406 389.214844 L 352.714844 389.261719 L 352.804688 389.40625 L 356.46875 387.105469 L 352.78125 389.363281 C 361.878906 404.285156 370.953125 419.488281 380.085938 434.738281 C 380.898438 436.082031 382.363281 436.882812 383.941406 436.835938 C 385.507812 436.78125 386.917969 435.902344 387.648438 434.503906 C 388.496094 432.84375 389.363281 431.199219 390.230469 429.515625 C 394.242188 421.746094 398.269531 413.960938 402.316406 406.179688 L 402.328125 406.144531 L 398.472656 404.171875 L 394.628906 402.175781 C 390.582031 409.96875 386.554688 417.765625 382.53125 425.546875 C 381.675781 427.203125 380.816406 428.851562 379.960938 430.507812 L 383.804688 432.507812 L 387.515625 430.285156 C 378.382812 415.046875 369.296875 399.816406 360.167969 384.851562 L 360.144531 384.804688 L 360.054688 384.671875 L 356.390625 386.960938 L 360.085938 384.714844 C 349.332031 367.007812 338.769531 349.558594 328.296875 332.695312 L 324.625 334.972656 L 326.902344 338.660156 L 375.925781 308.332031 C 377.277344 307.496094 378.496094 306.617188 379.632812 305.769531 L 377.0625 302.285156 L 373.355469 304.519531 C 376.882812 310.394531 380.480469 316.316406 384.121094 322.285156 C 391.167969 333.8125 398.359375 345.484375 405.628906 357.304688 L 405.628906 357.292969 C 408.210938 361.511719 410.835938 365.730469 413.441406 369.9375 L 417.117188 367.648438 L 413.261719 365.6875 C 407.074219 377.824219 400.839844 389.992188 394.617188 402.210938 L 394.628906 402.175781 L 398.472656 404.171875 " fill-opacity="1" fill-rule="nonzero"/><g clip-path="url(#c0f5348704)"><path fill="#ffd700" d="M 377.0625 302.285156 L 379.632812 305.769531 C 393.757812 295.324219 401.46875 279.027344 401.46875 262.390625 C 401.46875 252.722656 398.867188 242.921875 393.421875 234.113281 L 393.308594 233.941406 L 251.632812 26.84375 C 250.324219 24.9375 247.742188 24.394531 245.78125 25.613281 L 233.394531 33.269531 C 232.425781 33.867188 231.714844 34.851562 231.453125 35.96875 C 231.195312 37.074219 231.386719 38.269531 231.984375 39.238281 L 344.417969 221.175781 C 345.75 223.351562 346.378906 225.71875 346.378906 228.089844 C 346.378906 232.511719 344.171875 236.808594 340.144531 239.300781 C 337.96875 240.632812 335.601562 241.261719 333.246094 241.261719 C 328.828125 241.261719 324.523438 239.054688 322.042969 235.027344 L 321.917969 234.835938 L 200.039062 58.738281 C 198.730469 56.84375 196.160156 56.316406 194.199219 57.523438 L 184.390625 63.589844 C 182.441406 64.796875 181.765625 67.3125 182.859375 69.332031 L 284.808594 257.765625 L 284.933594 257.980469 C 286.273438 260.144531 286.90625 262.515625 286.90625 264.882812 C 286.894531 269.304688 284.695312 273.601562 280.660156 276.09375 C 278.496094 277.4375 276.128906 278.058594 273.761719 278.066406 C 269.34375 278.058594 265.046875 275.859375 262.554688 271.820312 L 150.121094 89.882812 C 148.871094 87.839844 146.199219 87.21875 144.167969 88.472656 L 130.632812 96.851562 C 128.648438 98.070312 127.992188 100.632812 129.132812 102.664062 L 252.128906 321.324219 L 252.21875 321.472656 C 262.410156 337.960938 280.0625 347.042969 298.097656 347.042969 C 307.769531 347.042969 317.578125 344.425781 326.394531 338.964844 L 326.890625 338.660156 L 375.925781 308.332031 C 377.277344 307.496094 378.496094 306.617188 379.632812 305.769531 L 377.0625 302.285156 L 374.484375 298.8125 C 373.410156 299.601562 372.398438 300.332031 371.371094 300.964844 L 322.347656 331.296875 L 321.851562 331.601562 C 314.421875 336.191406 306.214844 338.367188 298.097656 338.378906 C 282.9375 338.367188 268.148438 330.765625 259.578125 316.914062 L 255.90625 319.191406 L 259.671875 317.074219 L 138.714844 102.03125 L 145.039062 98.117188 L 255.195312 276.375 C 259.320312 283.042969 266.46875 286.730469 273.761719 286.730469 C 277.671875 286.730469 281.652344 285.671875 285.214844 283.460938 C 291.875 279.34375 295.5625 272.179688 295.5625 264.882812 C 295.5625 260.96875 294.503906 256.988281 292.292969 253.421875 L 288.617188 255.703125 L 292.417969 253.636719 L 192.417969 68.800781 L 195.257812 67.054688 L 314.792969 239.761719 L 318.355469 237.304688 L 314.679688 239.582031 C 318.796875 246.25 325.941406 249.9375 333.246094 249.925781 C 337.148438 249.925781 341.136719 248.867188 344.699219 246.667969 C 351.363281 242.539062 355.046875 235.386719 355.039062 228.089844 C 355.039062 224.175781 353.976562 220.183594 351.78125 216.617188 L 241.621094 38.359375 L 246.820312 35.144531 L 386.160156 238.839844 L 389.734375 236.390625 L 386.058594 238.667969 C 390.636719 246.089844 392.8125 254.269531 392.8125 262.390625 C 392.8125 276.363281 386.332031 290.046875 374.484375 298.800781 L 377.0625 302.285156 " fill-opacity="1" fill-rule="nonzero"/></g><path fill="#ffd700" d="M 454.507812 432.507812 L 458.386719 434.414062 C 458.847656 433.476562 459.300781 432.539062 459.761719 431.613281 C 461.765625 427.53125 463.761719 423.449219 465.757812 419.367188 C 473.21875 404.117188 480.625 388.910156 488.078125 373.976562 L 488.078125 373.964844 C 494.253906 361.535156 500.34375 349.265625 506.386719 337.195312 C 510.027344 329.929688 513.644531 322.734375 517.25 315.671875 L 517.261719 315.664062 C 518.515625 313.191406 519.777344 310.765625 521.050781 308.285156 C 521.816406 306.808594 521.671875 305.046875 520.679688 303.71875 C 519.699219 302.386719 518.050781 301.742188 516.417969 302.035156 C 512.597656 302.746094 508.84375 303.109375 505.210938 303.109375 C 497.582031 303.097656 490.445312 301.539062 483.875 298.292969 C 475.699219 294.242188 469.050781 287.871094 463.863281 279.488281 C 463.03125 278.160156 461.542969 277.367188 459.964844 277.449219 C 458.398438 277.527344 456.988281 278.453125 456.289062 279.871094 C 455.625 281.25 454.980469 282.578125 454.339844 283.886719 L 454.328125 283.898438 C 445.0625 302.828125 435.21875 322.261719 425.253906 342.054688 L 425.242188 342.066406 L 425.164062 342.214844 L 425.175781 342.214844 C 421.265625 349.996094 417.261719 357.835938 413.261719 365.6875 C 407.074219 377.824219 400.839844 389.992188 394.617188 402.210938 L 394.628906 402.175781 C 390.582031 409.96875 386.554688 417.765625 382.53125 425.546875 C 381.675781 427.203125 380.816406 428.851562 379.960938 430.507812 C 374.503906 441.066406 369.050781 451.566406 363.582031 461.921875 L 363.570312 461.933594 C 353.300781 481.617188 343.03125 500.90625 333.089844 519.59375 L 333.089844 519.570312 C 323.078125 538.214844 313.40625 556.242188 304.097656 573.238281 L 304.085938 573.25 C 294.839844 590.269531 285.945312 606.308594 277.707031 621.109375 C 269.476562 635.894531 261.847656 649.410156 255.035156 661.375 L 255.046875 661.355469 C 248.183594 673.289062 242.1875 683.6875 237.261719 692.257812 L 237.269531 692.226562 C 232.253906 700.753906 228.308594 707.453125 225.625 712.019531 L 225.636719 711.988281 C 222.921875 716.53125 221.46875 718.957031 221.457031 718.957031 L 221.445312 718.980469 C 219.371094 722.476562 217.351562 726.449219 215.742188 730.394531 C 211.738281 740.195312 209.820312 750.121094 209.820312 759.484375 C 209.820312 770.121094 212.289062 780.058594 217.105469 788.226562 C 221.90625 796.390625 229.144531 802.765625 238.320312 805.921875 C 242.582031 807.398438 247 808.097656 251.441406 808.097656 C 262.984375 808.085938 274.5625 803.441406 284.59375 795.554688 C 294.648438 787.660156 303.207031 776.472656 308.695312 763.027344 C 308.707031 763.015625 309.765625 760.398438 311.773438 755.480469 L 311.761719 755.515625 C 313.800781 750.628906 316.800781 743.445312 320.621094 734.320312 L 320.597656 734.355469 C 324.5 725.261719 329.246094 714.21875 334.679688 701.566406 L 334.667969 701.585938 C 340.15625 688.964844 346.402344 674.742188 353.300781 659.277344 C 360.199219 643.8125 367.707031 627.074219 375.789062 609.445312 L 375.789062 609.433594 C 383.804688 591.792969 392.429688 573.25 401.347656 554.042969 L 401.347656 554.054688 C 409.550781 536.558594 418.03125 518.511719 426.730469 500.25 C 427.566406 498.511719 428.378906 496.796875 429.199219 495.074219 L 429.210938 495.0625 C 438.691406 475.007812 448.601562 454.726562 458.410156 434.378906 L 458.386719 434.414062 L 454.507812 432.507812 L 450.609375 430.621094 C 440.824219 450.949219 430.902344 471.238281 421.386719 491.351562 L 421.398438 491.339844 C 420.566406 493.078125 419.742188 494.800781 418.917969 496.515625 C 410.195312 514.8125 401.71875 532.871094 393.511719 550.375 L 393.5 550.386719 C 384.582031 569.597656 375.949219 588.152344 367.910156 605.847656 L 367.921875 605.835938 C 359.816406 623.511719 352.296875 640.273438 345.386719 655.75 C 338.488281 671.234375 332.234375 685.480469 326.730469 698.125 L 326.71875 698.148438 C 321.285156 710.804688 316.550781 721.84375 312.652344 730.9375 L 312.628906 730.96875 C 308.820312 740.105469 305.820312 747.28125 303.769531 752.175781 L 303.757812 752.210938 C 301.75 757.128906 300.679688 759.753906 300.679688 759.753906 C 295.753906 771.824219 288.054688 781.828125 279.25 788.742188 C 270.445312 795.667969 260.605469 799.449219 251.441406 799.4375 C 247.902344 799.4375 244.464844 798.882812 241.148438 797.746094 C 234.035156 795.273438 228.476562 790.445312 224.566406 783.824219 C 220.65625 777.203125 218.480469 768.777344 218.480469 759.484375 C 218.480469 751.308594 220.160156 742.476562 223.753906 733.667969 C 225.175781 730.191406 227.023438 726.550781 228.894531 723.402344 L 228.882812 723.425781 C 228.882812 723.425781 230.339844 721 233.066406 716.441406 L 233.089844 716.421875 C 235.773438 711.839844 239.71875 705.152344 244.734375 696.613281 L 244.757812 696.578125 C 249.695312 688.019531 255.679688 677.609375 262.554688 665.675781 L 262.566406 665.652344 C 269.375 653.671875 277.019531 640.136719 285.269531 625.328125 C 293.511719 610.519531 302.417969 594.457031 311.695312 577.390625 L 311.695312 577.402344 C 321.027344 560.359375 330.699219 542.324219 340.722656 523.675781 L 340.722656 523.667969 C 350.664062 504.976562 360.957031 485.664062 371.246094 465.949219 L 371.234375 465.972656 C 376.726562 455.574219 382.183594 445.046875 387.648438 434.503906 C 388.496094 432.84375 389.363281 431.199219 390.230469 429.515625 C 394.242188 421.746094 398.269531 413.960938 402.316406 406.179688 L 402.328125 406.144531 C 408.550781 393.941406 414.78125 381.769531 420.972656 369.625 C 424.972656 361.773438 428.988281 353.910156 432.910156 346.09375 L 432.910156 346.082031 L 432.988281 345.9375 L 432.976562 345.949219 C 442.953125 326.175781 452.804688 306.707031 462.105469 287.710938 L 462.09375 287.722656 C 462.78125 286.335938 463.425781 284.992188 464.066406 283.675781 L 460.179688 281.777344 L 456.503906 284.058594 C 462.386719 293.589844 470.257812 301.226562 480.039062 306.0625 C 487.863281 309.945312 496.398438 311.769531 505.210938 311.769531 C 509.417969 311.769531 513.691406 311.355469 517.996094 310.5625 L 517.207031 306.300781 L 513.363281 304.316406 C 512.101562 306.761719 510.816406 309.222656 509.542969 311.75 L 509.550781 311.726562 C 505.921875 318.820312 502.292969 326.039062 498.652344 333.316406 C 492.585938 345.40625 486.5 357.691406 480.324219 370.109375 L 480.332031 370.109375 C 472.847656 385.085938 465.429688 400.316406 457.980469 415.554688 C 455.984375 419.636719 453.988281 423.71875 451.984375 427.792969 C 451.53125 428.726562 451.070312 429.664062 450.617188 430.589844 L 450.609375 430.621094 L 454.507812 432.507812 " fill-opacity="1" fill-rule="nonzero"/><path fill="#ffd700" d="M 481.957031 302.171875 L 480.039062 306.0625 C 487.863281 309.945312 496.398438 311.769531 505.210938 311.769531 C 509.417969 311.769531 513.691406 311.355469 517.996094 310.5625 C 537.871094 306.863281 558.542969 295.113281 577.820312 277.335938 C 597.085938 259.546875 614.953125 235.667969 628.917969 207.402344 C 638.582031 187.855469 647.113281 168.894531 653.257812 150.824219 C 659.402344 132.753906 663.1875 115.601562 663.1875 99.617188 C 663.199219 85.066406 660 71.453125 652.511719 59.460938 C 645.027344 47.460938 633.351562 37.242188 616.914062 29.121094 C 602.945312 22.207031 589.859375 18.933594 577.582031 18.933594 C 565.53125 18.921875 554.328125 22.117188 544.046875 27.765625 C 528.605469 36.261719 515.167969 50.191406 502.789062 67.460938 C 490.410156 84.75 479.070312 105.460938 468.035156 127.78125 C 451.09375 162.070312 442.738281 196.980469 442.726562 227.164062 C 442.738281 249.351562 447.238281 269.042969 456.503906 284.058594 C 462.386719 293.589844 470.257812 301.226562 480.039062 306.0625 L 481.957031 302.171875 L 483.875 298.292969 C 475.699219 294.242188 469.050781 287.871094 463.863281 279.488281 C 455.726562 266.359375 451.375 248.1875 451.386719 227.164062 C 451.375 198.570312 459.378906 164.8125 475.789062 131.617188 C 490.355469 102.132812 505.371094 75.804688 522.019531 57.148438 C 530.328125 47.808594 539.03125 40.398438 548.21875 35.359375 C 557.40625 30.328125 567.042969 27.609375 577.582031 27.597656 C 588.316406 27.597656 600.039062 30.441406 613.082031 36.890625 C 628.414062 44.484375 638.660156 53.640625 645.164062 64.050781 C 651.667969 74.476562 654.53125 86.296875 654.53125 99.617188 C 654.542969 114.210938 651.027344 130.535156 645.0625 148.027344 C 639.109375 165.535156 630.734375 184.199219 621.164062 203.554688 C 607.636719 230.929688 590.34375 253.988281 571.945312 270.960938 C 553.5625 287.960938 534.070312 298.800781 516.417969 302.035156 C 512.585938 302.746094 508.84375 303.109375 505.210938 303.109375 C 497.582031 303.097656 490.445312 301.539062 483.875 298.292969 L 481.957031 302.171875 " fill-opacity="1" fill-rule="nonzero"/><path fill="#ffd700" d="M 500.984375 277.335938 C 501.355469 277.265625 517.242188 274.402344 538.613281 261.824219 C 559.976562 249.261719 586.804688 226.925781 608.84375 188.136719 C 631.894531 147.542969 638.207031 122.277344 638.230469 105.390625 C 638.230469 97.855469 636.933594 92.035156 635.402344 87.558594 C 633.878906 83.105469 632.15625 79.910156 631.523438 78.0625 C 630.710938 75.804688 628.230469 74.632812 625.988281 75.433594 C 623.734375 76.246094 622.5625 78.714844 623.363281 80.972656 C 624.433594 83.894531 625.933594 86.589844 627.21875 90.355469 C 628.480469 94.101562 629.5625 98.828125 629.574219 105.390625 C 629.585938 120.019531 623.980469 144 601.3125 183.863281 C 580.0625 221.242188 554.464844 242.4375 534.230469 254.359375 C 524.105469 260.324219 515.324219 263.945312 509.125 266.078125 C 506.011719 267.136719 503.554688 267.828125 501.898438 268.242188 C 501.0625 268.457031 500.433594 268.605469 500.027344 268.683594 L 499.578125 268.785156 L 499.476562 268.796875 L 499.464844 268.808594 L 499.757812 270.421875 L 499.476562 268.796875 L 499.464844 268.808594 L 499.757812 270.421875 L 499.476562 268.796875 C 497.117188 269.226562 495.550781 271.46875 495.96875 273.828125 C 496.386719 276.171875 498.628906 277.753906 500.984375 277.335938 " fill-opacity="1" fill-rule="nonzero"/></svg>