<svg xmlns="http://www.w3.org/2000/svg" xmlns:xlink="http://www.w3.org/1999/xlink" width="40" zoomAndPan="magnify" viewBox="0 0 30 37.5" height="50" preserveAspectRatio="xMidYMid meet" version="1.0"><defs><clipPath id="d6d763c0ab"><path d="M 4.289062 0 L 24 0 L 24 36.917969 L 4.289062 36.917969 Z M 4.289062 0 " clip-rule="nonzero"/></clipPath><clipPath id="2b3c685e88"><path d="M 14 0 L 25.75 0 L 25.75 20 L 14 20 Z M 14 0 " clip-rule="nonzero"/></clipPath><clipPath id="56e31ab932"><path d="M 7 20 L 16 20 L 16 36.917969 L 7 36.917969 Z M 7 20 " clip-rule="nonzero"/></clipPath></defs><g clip-path="url(#d6d763c0ab)"><path fill="#fcc436" d="M 14.34375 15.835938 C 14.3125 15.777344 14.285156 15.722656 14.253906 15.664062 C 13.378906 13.984375 13.410156 12.476562 13.527344 11.648438 C 13.59375 11.421875 13.636719 11.203125 13.664062 10.988281 L 13.664062 10.984375 C 13.847656 9.511719 13.160156 8.332031 12.957031 7.914062 L 10.429688 3.359375 L 9.570312 1.632812 C 9.257812 0.980469 8.9375 0.722656 8.753906 0.8125 L 8.679688 0.84375 C 8.429688 0.964844 8.636719 1.515625 8.800781 1.851562 L 11.8125 9.09375 C 11.722656 9.070312 11.632812 9.003906 11.585938 8.902344 L 11.523438 8.792969 L 8.085938 2.191406 C 7.921875 1.851562 7.621094 1.347656 7.375 1.464844 L 7.300781 1.5 C 7.117188 1.585938 7.117188 1.996094 7.429688 2.652344 L 10.539062 9.753906 C 10.527344 9.765625 10.519531 9.777344 10.503906 9.785156 C 10.488281 9.792969 10.464844 9.792969 10.449219 9.796875 L 6.804688 2.796875 C 6.640625 2.460938 6.34375 1.957031 6.09375 2.074219 L 6.019531 2.109375 C 5.835938 2.195312 5.835938 2.605469 6.148438 3.257812 L 8.761719 9.230469 L 9.105469 10.078125 C 9.15625 10.183594 9.152344 10.296875 9.109375 10.382812 L 5.351562 3.488281 C 5.191406 3.152344 4.890625 2.644531 4.640625 2.761719 L 4.570312 2.796875 C 4.386719 2.886719 4.382812 3.292969 4.695312 3.949219 L 4.910156 4.414062 C 4.9375 4.53125 4.976562 4.648438 5.027344 4.753906 L 7.492188 10.511719 C 7.699219 10.945312 8.296875 12.183594 9.65625 13.039062 L 9.65625 13.042969 L 9.664062 13.042969 C 9.882812 13.183594 10.125 13.3125 10.390625 13.425781 C 11.066406 13.871094 12.058594 14.753906 12.722656 16.394531 C 12.765625 16.5 12.808594 16.597656 12.851562 16.695312 C 15.152344 22.691406 19.152344 31.832031 19.964844 33.53125 C 21.179688 36.066406 22.59375 36.5625 23.195312 36.265625 C 23.578125 36.074219 24.285156 34.59375 23.070312 32.054688 C 22.25 30.347656 17.570312 21.382812 14.34375 15.835938 " fill-opacity="1" fill-rule="nonzero"/><path fill="#fcc436" d="M 14.34375 15.835938 L 14.480469 15.765625 C 14.453125 15.710938 14.425781 15.65625 14.390625 15.589844 L 14.253906 15.664062 L 14.394531 15.59375 C 13.78125 14.417969 13.621094 13.332031 13.621094 12.511719 C 13.621094 12.183594 13.648438 11.898438 13.679688 11.667969 L 13.527344 11.648438 L 13.675781 11.691406 C 13.746094 11.457031 13.792969 11.226562 13.820312 11.003906 L 13.664062 10.988281 L 13.804688 11.050781 L 13.808594 11.046875 C 13.828125 11 13.824219 10.945312 13.796875 10.898438 C 13.769531 10.855469 13.71875 10.828125 13.664062 10.828125 L 13.664062 10.984375 L 13.820312 11.003906 C 13.839844 10.828125 13.851562 10.65625 13.851562 10.488281 C 13.851562 9.84375 13.707031 9.277344 13.539062 8.824219 C 13.457031 8.59375 13.367188 8.398438 13.289062 8.230469 C 13.210938 8.066406 13.140625 7.9375 13.097656 7.847656 L 13.09375 7.839844 L 10.566406 3.289062 L 9.710938 1.566406 L 9.570312 1.632812 L 9.710938 1.566406 C 9.570312 1.269531 9.425781 1.050781 9.28125 0.894531 C 9.210938 0.816406 9.140625 0.757812 9.066406 0.710938 C 8.992188 0.667969 8.914062 0.640625 8.828125 0.640625 C 8.78125 0.640625 8.730469 0.648438 8.683594 0.671875 L 8.613281 0.707031 L 8.613281 0.703125 C 8.535156 0.742188 8.480469 0.804688 8.449219 0.875 C 8.417969 0.945312 8.410156 1.015625 8.410156 1.085938 C 8.410156 1.226562 8.445312 1.371094 8.492188 1.515625 C 8.542969 1.660156 8.601562 1.800781 8.65625 1.917969 L 8.800781 1.851562 L 8.65625 1.910156 L 11.667969 9.152344 L 11.8125 9.09375 L 11.851562 8.941406 C 11.804688 8.929688 11.753906 8.894531 11.726562 8.835938 L 11.722656 8.824219 L 11.660156 8.71875 L 8.222656 2.121094 L 8.085938 2.191406 L 8.226562 2.125 C 8.148438 1.964844 8.046875 1.773438 7.925781 1.613281 C 7.863281 1.53125 7.796875 1.457031 7.722656 1.398438 C 7.6875 1.371094 7.644531 1.34375 7.601562 1.324219 C 7.554688 1.304688 7.503906 1.292969 7.449219 1.292969 C 7.402344 1.292969 7.351562 1.304688 7.304688 1.324219 L 7.308594 1.324219 L 7.234375 1.359375 C 7.15625 1.394531 7.097656 1.464844 7.066406 1.539062 C 7.03125 1.613281 7.019531 1.699219 7.019531 1.789062 C 7.019531 2.027344 7.105469 2.335938 7.289062 2.71875 L 7.429688 2.652344 L 7.285156 2.710938 L 10.398438 9.816406 L 10.539062 9.753906 L 10.445312 9.632812 C 10.425781 9.648438 10.417969 9.65625 10.414062 9.660156 L 10.476562 9.722656 L 10.4375 9.644531 C 10.421875 9.652344 10.414062 9.65625 10.414062 9.660156 L 10.476562 9.722656 L 10.4375 9.644531 L 10.472656 9.71875 L 10.453125 9.640625 L 10.4375 9.644531 L 10.472656 9.71875 L 10.453125 9.640625 L 10.460938 9.667969 L 10.453125 9.636719 L 10.453125 9.640625 L 10.460938 9.667969 L 10.453125 9.636719 C 10.453125 9.640625 10.441406 9.640625 10.417969 9.644531 L 10.449219 9.796875 L 10.585938 9.726562 L 6.941406 2.726562 L 6.804688 2.796875 L 6.945312 2.730469 C 6.867188 2.574219 6.765625 2.382812 6.644531 2.222656 C 6.582031 2.140625 6.515625 2.066406 6.441406 2.007812 C 6.40625 1.976562 6.363281 1.953125 6.320312 1.933594 C 6.273438 1.914062 6.222656 1.902344 6.171875 1.902344 C 6.121094 1.902344 6.070312 1.910156 6.023438 1.933594 L 6.027344 1.933594 L 5.953125 1.96875 C 5.875 2.003906 5.816406 2.074219 5.785156 2.148438 C 5.75 2.222656 5.738281 2.308594 5.738281 2.398438 C 5.738281 2.636719 5.824219 2.941406 6.007812 3.328125 L 6.148438 3.257812 L 6.003906 3.320312 L 8.621094 9.292969 L 8.960938 10.136719 L 8.964844 10.144531 C 8.980469 10.175781 8.984375 10.207031 8.984375 10.234375 C 8.984375 10.265625 8.980469 10.292969 8.96875 10.316406 L 9.109375 10.382812 L 9.246094 10.308594 L 5.488281 3.414062 L 5.351562 3.488281 L 5.492188 3.421875 C 5.417969 3.261719 5.3125 3.070312 5.191406 2.910156 C 5.132812 2.828125 5.066406 2.753906 4.992188 2.695312 C 4.953125 2.667969 4.914062 2.640625 4.867188 2.621094 C 4.824219 2.601562 4.773438 2.589844 4.71875 2.589844 C 4.671875 2.589844 4.621094 2.601562 4.574219 2.625 L 4.574219 2.621094 L 4.503906 2.65625 C 4.425781 2.695312 4.367188 2.761719 4.332031 2.835938 C 4.300781 2.914062 4.289062 2.996094 4.285156 3.089844 C 4.289062 3.328125 4.375 3.632812 4.554688 4.015625 L 4.695312 3.949219 L 4.554688 4.011719 L 4.769531 4.480469 L 4.910156 4.414062 L 4.757812 4.449219 C 4.789062 4.574219 4.828125 4.703125 4.882812 4.820312 L 5.027344 4.753906 L 4.882812 4.816406 L 7.347656 10.570312 L 7.351562 10.578125 C 7.457031 10.796875 7.664062 11.226562 8.015625 11.707031 C 8.371094 12.191406 8.871094 12.730469 9.574219 13.171875 L 9.65625 13.039062 L 9.523438 12.960938 L 9.519531 12.964844 C 9.496094 13.003906 9.492188 13.054688 9.511719 13.097656 C 9.527344 13.140625 9.5625 13.175781 9.609375 13.191406 L 9.613281 13.191406 L 9.664062 13.042969 L 9.578125 13.175781 C 9.804688 13.320312 10.054688 13.453125 10.328125 13.570312 L 10.390625 13.425781 L 10.304688 13.558594 C 10.957031 13.988281 11.925781 14.847656 12.578125 16.449219 C 12.621094 16.5625 12.664062 16.660156 12.707031 16.757812 L 12.851562 16.695312 L 12.707031 16.753906 C 13.859375 19.753906 15.433594 23.539062 16.824219 26.785156 C 17.515625 28.410156 18.164062 29.898438 18.691406 31.089844 C 19.214844 32.28125 19.617188 33.167969 19.820312 33.597656 C 20.335938 34.671875 20.886719 35.390625 21.410156 35.847656 C 21.933594 36.300781 22.429688 36.496094 22.832031 36.496094 C 22.992188 36.496094 23.140625 36.464844 23.261719 36.402344 C 23.351562 36.359375 23.425781 36.289062 23.5 36.195312 C 23.609375 36.054688 23.707031 35.855469 23.78125 35.601562 C 23.859375 35.34375 23.90625 35.035156 23.90625 34.667969 C 23.90625 33.96875 23.726562 33.066406 23.210938 31.988281 C 23.003906 31.558594 22.558594 30.675781 21.953125 29.507812 C 20.140625 26.003906 16.902344 19.921875 14.476562 15.757812 L 14.34375 15.835938 L 14.480469 15.765625 L 14.34375 15.835938 L 14.207031 15.914062 C 15.820312 18.683594 17.796875 22.3125 19.472656 25.457031 C 20.308594 27.03125 21.070312 28.484375 21.675781 29.652344 C 22.28125 30.816406 22.726562 31.699219 22.929688 32.121094 C 23.429688 33.167969 23.59375 34.019531 23.59375 34.667969 C 23.59375 35.117188 23.515625 35.46875 23.410156 35.71875 C 23.359375 35.839844 23.304688 35.9375 23.25 36.003906 C 23.199219 36.074219 23.148438 36.113281 23.125 36.125 C 23.050781 36.160156 22.953125 36.183594 22.832031 36.183594 C 22.535156 36.1875 22.101562 36.03125 21.617188 35.613281 C 21.136719 35.191406 20.605469 34.507812 20.105469 33.464844 C 19.902344 33.042969 19.5 32.152344 18.976562 30.964844 C 17.402344 27.398438 14.722656 21.132812 12.996094 16.640625 L 12.996094 16.636719 C 12.949219 16.53125 12.910156 16.4375 12.867188 16.335938 C 12.191406 14.664062 11.171875 13.753906 10.476562 13.296875 L 10.449219 13.285156 C 10.195312 13.175781 9.960938 13.046875 9.746094 12.910156 C 9.734375 12.90625 9.722656 12.898438 9.710938 12.894531 L 9.703125 12.894531 L 9.65625 13.042969 L 9.792969 13.121094 L 9.792969 13.117188 C 9.835938 13.046875 9.8125 12.953125 9.742188 12.910156 C 9.082031 12.492188 8.605469 11.984375 8.269531 11.523438 C 7.933594 11.066406 7.738281 10.660156 7.632812 10.445312 L 7.492188 10.511719 L 7.636719 10.449219 L 5.167969 4.691406 L 5.167969 4.6875 C 5.121094 4.59375 5.089844 4.488281 5.0625 4.378906 C 5.0625 4.367188 5.058594 4.359375 5.054688 4.347656 L 4.839844 3.882812 C 4.667969 3.527344 4.597656 3.25 4.597656 3.089844 C 4.597656 3.027344 4.609375 2.984375 4.621094 2.960938 C 4.628906 2.941406 4.632812 2.941406 4.636719 2.9375 L 4.707031 2.902344 L 4.71875 2.902344 C 4.722656 2.902344 4.730469 2.902344 4.746094 2.90625 C 4.769531 2.917969 4.808594 2.945312 4.847656 2.988281 C 4.914062 3.050781 4.980469 3.144531 5.042969 3.246094 C 5.105469 3.351562 5.164062 3.460938 5.210938 3.554688 L 5.214844 3.5625 L 8.972656 10.457031 C 9 10.507812 9.050781 10.539062 9.109375 10.539062 C 9.167969 10.539062 9.222656 10.503906 9.25 10.453125 C 9.28125 10.386719 9.296875 10.3125 9.296875 10.234375 C 9.296875 10.160156 9.28125 10.085938 9.246094 10.011719 L 9.105469 10.078125 L 9.25 10.019531 L 8.90625 9.171875 L 8.90625 9.167969 L 6.292969 3.195312 L 6.289062 3.191406 C 6.117188 2.835938 6.050781 2.558594 6.050781 2.398438 C 6.050781 2.335938 6.0625 2.292969 6.070312 2.273438 C 6.082031 2.25 6.085938 2.25 6.089844 2.25 L 6.085938 2.25 L 6.160156 2.214844 L 6.171875 2.210938 C 6.175781 2.210938 6.183594 2.214844 6.195312 2.21875 C 6.21875 2.230469 6.257812 2.257812 6.300781 2.296875 C 6.363281 2.363281 6.433594 2.457031 6.496094 2.558594 C 6.558594 2.660156 6.617188 2.769531 6.664062 2.867188 L 6.664062 2.871094 L 10.308594 9.867188 C 10.339844 9.929688 10.410156 9.964844 10.480469 9.949219 L 10.472656 9.925781 L 10.476562 9.949219 L 10.480469 9.949219 L 10.472656 9.925781 L 10.476562 9.949219 C 10.476562 9.949219 10.484375 9.949219 10.503906 9.945312 C 10.519531 9.945312 10.542969 9.9375 10.570312 9.925781 C 10.601562 9.910156 10.621094 9.894531 10.628906 9.882812 L 10.640625 9.875 L 10.597656 9.828125 L 10.636719 9.878906 L 10.640625 9.875 L 10.597656 9.828125 L 10.636719 9.878906 C 10.691406 9.835938 10.710938 9.757812 10.683594 9.695312 L 7.574219 2.589844 L 7.570312 2.582031 C 7.398438 2.226562 7.332031 1.953125 7.332031 1.789062 C 7.332031 1.730469 7.34375 1.6875 7.351562 1.664062 C 7.363281 1.640625 7.367188 1.640625 7.371094 1.640625 L 7.441406 1.605469 L 7.449219 1.605469 C 7.453125 1.605469 7.464844 1.605469 7.476562 1.609375 C 7.5 1.621094 7.539062 1.648438 7.582031 1.691406 C 7.644531 1.753906 7.714844 1.847656 7.777344 1.949219 C 7.839844 2.050781 7.898438 2.160156 7.941406 2.257812 L 7.945312 2.261719 L 11.382812 8.863281 L 11.386719 8.871094 L 11.449219 8.980469 L 11.585938 8.902344 L 11.445312 8.96875 C 11.511719 9.113281 11.636719 9.210938 11.773438 9.242188 C 11.832031 9.257812 11.890625 9.238281 11.929688 9.195312 C 11.96875 9.148438 11.980469 9.089844 11.957031 9.035156 L 8.941406 1.792969 L 8.941406 1.785156 C 8.886719 1.675781 8.832031 1.546875 8.789062 1.417969 C 8.746094 1.292969 8.71875 1.167969 8.722656 1.085938 C 8.722656 1.042969 8.726562 1.015625 8.734375 1.003906 C 8.742188 0.988281 8.742188 0.992188 8.746094 0.984375 L 8.75 0.984375 L 8.820312 0.953125 L 8.828125 0.949219 C 8.835938 0.949219 8.863281 0.953125 8.90625 0.980469 C 8.964844 1.015625 9.050781 1.089844 9.140625 1.210938 C 9.230469 1.332031 9.328125 1.492188 9.429688 1.703125 L 10.289062 3.429688 L 10.292969 3.4375 L 12.820312 7.992188 L 12.957031 7.914062 L 12.816406 7.984375 C 12.863281 8.078125 12.929688 8.207031 13.007812 8.367188 C 13.234375 8.84375 13.539062 9.59375 13.539062 10.488281 C 13.539062 10.644531 13.527344 10.800781 13.507812 10.964844 C 13.503906 11.007812 13.519531 11.054688 13.546875 11.085938 C 13.578125 11.121094 13.621094 11.140625 13.664062 11.140625 L 13.664062 10.984375 L 13.523438 10.917969 L 13.523438 10.921875 C 13.515625 10.9375 13.511719 10.953125 13.507812 10.96875 C 13.484375 11.175781 13.441406 11.386719 13.375 11.605469 L 13.371094 11.625 C 13.335938 11.867188 13.308594 12.167969 13.308594 12.511719 C 13.308594 13.371094 13.476562 14.511719 14.117188 15.734375 L 14.117188 15.738281 C 14.144531 15.792969 14.171875 15.84375 14.203125 15.90625 L 14.207031 15.914062 L 14.34375 15.835938 " fill-opacity="1" fill-rule="nonzero"/></g><path fill="#fcc436" d="M 24.777344 0.523438 C 21.480469 -0.828125 17.128906 7.453125 16.390625 9.996094 C 15.683594 12.421875 15.175781 14.296875 14.949219 15.757812 C 15.558594 16.804688 16.210938 17.957031 16.875 19.160156 C 18.65625 15.535156 25.746094 0.921875 24.777344 0.523438 " fill-opacity="1" fill-rule="nonzero"/><g clip-path="url(#2b3c685e88)"><path fill="#fcc436" d="M 24.777344 0.523438 L 24.835938 0.378906 C 24.570312 0.273438 24.296875 0.21875 24.023438 0.21875 C 23.597656 0.21875 23.167969 0.34375 22.742188 0.554688 C 22 0.925781 21.269531 1.566406 20.570312 2.355469 C 19.523438 3.535156 18.558594 5.042969 17.792969 6.449219 C 17.03125 7.855469 16.46875 9.160156 16.238281 9.953125 C 15.53125 12.378906 15.023438 14.261719 14.796875 15.734375 C 14.789062 15.769531 14.796875 15.804688 14.816406 15.835938 C 15.421875 16.878906 16.074219 18.035156 16.738281 19.234375 C 16.765625 19.285156 16.820312 19.316406 16.878906 19.316406 C 16.9375 19.3125 16.988281 19.28125 17.015625 19.226562 C 17.847656 17.53125 19.847656 13.421875 21.636719 9.492188 C 22.535156 7.527344 23.378906 5.605469 23.996094 4.050781 C 24.308594 3.273438 24.5625 2.585938 24.742188 2.03125 C 24.828125 1.75 24.898438 1.503906 24.949219 1.292969 C 24.996094 1.082031 25.023438 0.910156 25.023438 0.765625 C 25.023438 0.6875 25.015625 0.617188 24.992188 0.550781 C 24.980469 0.515625 24.960938 0.484375 24.933594 0.453125 C 24.910156 0.421875 24.875 0.394531 24.835938 0.378906 L 24.714844 0.667969 L 24.734375 0.621094 L 24.695312 0.65625 L 24.714844 0.667969 L 24.734375 0.621094 L 24.695312 0.65625 L 24.710938 0.640625 L 24.695312 0.652344 L 24.695312 0.65625 L 24.710938 0.640625 L 24.695312 0.652344 L 24.699219 0.660156 C 24.703125 0.671875 24.710938 0.710938 24.710938 0.765625 C 24.710938 0.867188 24.6875 1.027344 24.644531 1.226562 C 24.558594 1.597656 24.394531 2.109375 24.171875 2.726562 C 23.386719 4.878906 21.871094 8.277344 20.378906 11.480469 C 18.886719 14.6875 17.417969 17.699219 16.734375 19.089844 L 16.875 19.160156 L 17.011719 19.085938 C 16.34375 17.882812 15.691406 16.726562 15.085938 15.679688 L 14.949219 15.757812 L 15.105469 15.78125 C 15.328125 14.335938 15.832031 12.460938 16.539062 10.039062 C 16.707031 9.464844 17.066406 8.574219 17.566406 7.570312 C 18.3125 6.058594 19.363281 4.285156 20.515625 2.898438 C 21.089844 2.203125 21.691406 1.609375 22.289062 1.1875 C 22.886719 0.769531 23.472656 0.53125 24.023438 0.53125 C 24.257812 0.53125 24.488281 0.574219 24.714844 0.667969 L 24.777344 0.523438 " fill-opacity="1" fill-rule="nonzero"/></g><g clip-path="url(#56e31ab932)"><path fill="#fcc436" d="M 8.382812 32.511719 C 7.308594 35.113281 7.890625 36.488281 8.511719 36.734375 C 8.914062 36.890625 10.488281 36.417969 11.566406 33.816406 C 12.136719 32.433594 13.601562 28.511719 15.160156 23.914062 C 14.691406 22.796875 14.226562 21.667969 13.777344 20.566406 C 11.097656 25.921875 9.0625 30.875 8.382812 32.511719 " fill-opacity="1" fill-rule="nonzero"/><path fill="#fcc436" d="M 8.382812 32.511719 L 8.238281 32.453125 C 7.796875 33.519531 7.628906 34.386719 7.628906 35.070312 C 7.628906 35.574219 7.71875 35.976562 7.867188 36.277344 C 8.015625 36.582031 8.222656 36.785156 8.453125 36.878906 L 8.457031 36.878906 C 8.523438 36.90625 8.601562 36.914062 8.683594 36.914062 C 8.855469 36.914062 9.0625 36.871094 9.300781 36.769531 C 10.011719 36.464844 10.980469 35.640625 11.710938 33.878906 C 12.285156 32.488281 13.75 28.566406 15.308594 23.964844 C 15.320312 23.929688 15.320312 23.890625 15.304688 23.855469 C 14.835938 22.738281 14.371094 21.609375 13.921875 20.507812 C 13.898438 20.453125 13.84375 20.414062 13.785156 20.414062 C 13.722656 20.410156 13.664062 20.445312 13.636719 20.5 C 10.957031 25.859375 8.917969 30.8125 8.238281 32.453125 L 8.527344 32.574219 C 9.203125 30.933594 11.242188 25.988281 13.917969 20.636719 L 13.777344 20.566406 L 13.632812 20.625 C 14.082031 21.726562 14.546875 22.855469 15.015625 23.972656 L 15.160156 23.914062 L 15.011719 23.863281 C 13.457031 28.457031 11.988281 32.382812 11.421875 33.757812 C 10.949219 34.894531 10.386719 35.609375 9.878906 36.039062 C 9.625 36.25 9.382812 36.394531 9.179688 36.484375 C 8.972656 36.570312 8.796875 36.605469 8.683594 36.605469 C 8.628906 36.605469 8.585938 36.597656 8.570312 36.589844 C 8.429688 36.535156 8.273438 36.394531 8.148438 36.140625 C 8.027344 35.890625 7.941406 35.535156 7.941406 35.070312 C 7.941406 34.4375 8.097656 33.609375 8.527344 32.574219 L 8.382812 32.511719 " fill-opacity="1" fill-rule="nonzero"/></g></svg>