<svg xmlns="http://www.w3.org/2000/svg" xmlns:xlink="http://www.w3.org/1999/xlink" width="1080" zoomAndPan="magnify" viewBox="0 0 810 809.999993" height="1080" preserveAspectRatio="xMidYMid meet" version="1.0"><path fill="#41197f" d="M 792.179688 810 L 421.199219 439.019531 L 439.019531 421.199219 L 810 792.179688 Z M 524.71875 262.277344 C 524.71875 407.105469 407.269531 524.554688 262.441406 524.554688 C 117.449219 524.71875 0 407.269531 0 262.277344 C 0 117.449219 117.449219 0 262.277344 0 C 407.269531 0 524.71875 117.449219 524.71875 262.277344 Z M 262.277344 25.109375 C 131.21875 25.109375 25.109375 131.382812 25.109375 262.277344 C 25.109375 393.335938 131.382812 499.445312 262.277344 499.445312 C 393.335938 499.445312 499.445312 393.175781 499.445312 262.277344 C 499.445312 131.382812 393.335938 25.109375 262.277344 25.109375 Z M 262.277344 25.109375 " fill-opacity="1" fill-rule="nonzero"/></svg>